<svg width="240" height="240" viewBox="0 0 240 240" fill="none" xmlns="http://www.w3.org/2000/svg">
<g clip-path="url(#clip0_73_97)">
<g filter="url(#filter0_d_73_97)">
<rect width="240" height="240" rx="12" fill="url(#paint0_linear_73_97)" shape-rendering="crispEdges"/>
</g>
<path d="M157.824 196.234C185.436 178.287 199.117 150.863 202.968 138.021C203.203 137.237 202.879 136.377 202.222 135.889C95.0759 56.2417 52.5177 105.62 155.414 196.031C156.078 196.614 157.083 196.716 157.824 196.234Z" fill="#FAEFE8"/>
<ellipse cx="144.382" cy="138.401" rx="44.519" ry="22.8955" transform="rotate(38.6819 144.382 138.401)" fill="url(#paint1_linear_73_97)"/>
<path d="M95.9423 57.2542L70.5877 36.9545C69.7967 36.3212 68.6438 36.3927 67.9207 37.1027C47.8994 56.7617 45.4764 58.0753 28.7692 85.9602C28.2557 86.8173 28.4431 87.942 29.2231 88.5665L59.2166 112.58C59.3637 112.698 59.5268 112.794 59.7009 112.867L129.211 141.673C129.233 141.682 129.25 141.69 129.272 141.699C129.71 141.877 135.138 143.841 142.343 134.843C148.944 126.597 146.165 122.726 145.391 121.906C145.279 121.788 145.163 121.67 145.065 121.54L96.2842 57.6048C96.1854 57.4753 96.0694 57.356 95.9423 57.2542Z" fill="#FAEFE8"/>
</g>
<defs>
<filter id="filter0_d_73_97" x="-64.1" y="-60.1" width="368.2" height="368.2" filterUnits="userSpaceOnUse" color-interpolation-filters="sRGB">
<feFlood flood-opacity="0" result="BackgroundImageFix"/>
<feColorMatrix in="SourceAlpha" type="matrix" values="0 0 0 0 0 0 0 0 0 0 0 0 0 0 0 0 0 0 127 0" result="hardAlpha"/>
<feOffset dy="4"/>
<feGaussianBlur stdDeviation="32.05"/>
<feComposite in2="hardAlpha" operator="out"/>
<feColorMatrix type="matrix" values="0 0 0 0 0.625 0 0 0 0 0.528646 0 0 0 0 0.586459 0 0 0 0.26 0"/>
<feBlend mode="normal" in2="BackgroundImageFix" result="effect1_dropShadow_73_97"/>
<feBlend mode="normal" in="SourceGraphic" in2="effect1_dropShadow_73_97" result="shape"/>
</filter>
<linearGradient id="paint0_linear_73_97" x1="-1.64065e-06" y1="108" x2="205.738" y2="110.785" gradientUnits="userSpaceOnUse">
<stop stop-color="#FFBE98"/>
<stop offset="1" stop-color="#FF158C"/>
</linearGradient>
<linearGradient id="paint1_linear_73_97" x1="99.8627" y1="136.112" x2="176.151" y2="138.12" gradientUnits="userSpaceOnUse">
<stop stop-color="#FFBE98"/>
<stop offset="1" stop-color="#FF158C"/>
</linearGradient>
<clipPath id="clip0_73_97">
<rect width="240" height="240" fill="white"/>
</clipPath>
</defs>
</svg>
